<svg version="1.1" id="Layer_1" xmlns="http://www.w3.org/2000/svg" x="0" y="0" xml:space="preserve" viewBox="0 0 24 17.5"><style>.st0{fill:none;stroke:#000;stroke-width:1;stroke-linecap:round;stroke-linejoin:round}</style><path class="st0" d="M22.5 3.4c-.2-1-1-1.7-1.9-2C18.9 1 12 1 12 1s-6.9 0-8.6.5c-1 .3-1.7 1-1.9 2C1.1 5.2 1 7 1 8.8c0 1.8.1 3.6.5 5.3.3.9 1 1.7 1.9 1.9 1.7.5 8.6.5 8.6.5s6.9 0 8.6-.5c1-.3 1.7-1 1.9-2 .3-1.7.5-3.5.5-5.3 0-1.7-.1-3.5-.5-5.3z"/><path class="st0" d="M9.8 12l5.7-3.2-5.7-3.3z"/></svg>